PathFileType	4	(X/Y/Z)	/Users/itak/Documents/Research/Walk-IL/dataset/trc/00094_00006.trc
DataRate	CameraRate	NumFrames	NumMarkers	Units	OrigDataRate	OrigDataStartFrame	OrigNumFrames
100.000000	100.000000	4	53	mm	100.000000	459	525
Frame#	Time	RPSI			LPSI			L3			STRN			T10			C7			CLAV			RBAK			LBAK			LSHO			LUPA			LAEL			LAOL			LWTS			LWPS			LFRA			LIFD			LHPS			LHTS			RSHO			RUPA			RAEL			RAOL			RWTS			RWPS			RFRA			RIFD			RHTS			RHPS			RBHD			LFHD			RFHD			LBHD			LHIP			RHIP			RASI			LASI			LKNE			LTHI			LANK			LTIP			LTOE			LMT1			LMT5			LHEE			RKNE			RTHI			RANK			RTIP			RTOE			RMT1			RMT5			RHEE			
		X1	Y1	Z1	X2	Y2	Z2	X3	Y3	Z3	X4	Y4	Z4	X5	Y5	Z5	X6	Y6	Z6	X7	Y7	Z7	X8	Y8	Z8	X9	Y9	Z9	X10	Y10	Z10	X11	Y11	Z11	X12	Y12	Z12	X13	Y13	Z13	X14	Y14	Z14	X15	Y15	Z15	X16	Y16	Z16	X17	Y17	Z17	X18	Y18	Z18	X19	Y19	Z19	X20	Y20	Z20	X21	Y21	Z21	X22	Y22	Z22	X23	Y23	Z23	X24	Y24	Z24	X25	Y25	Z25	X26	Y26	Z26	X27	Y27	Z27	X28	Y28	Z28	X29	Y29	Z29	X30	Y30	Z30	X31	Y31	Z31	X32	Y32	Z32	X33	Y33	Z33	X34	Y34	Z34	X35	Y35	Z35	X36	Y36	Z36	X37	Y37	Z37	X38	Y38	Z38	X39	Y39	Z39	X40	Y40	Z40	X41	Y41	Z41	X42	Y42	Z42	X43	Y43	Z43	X44	Y44	Z44	X45	Y45	Z45	X46	Y46	Z46	X47	Y47	Z47	X48	Y48	Z48	X49	Y49	Z49	X50	Y50	Z50	X51	Y51	Z51	X52	Y52	Z52	X53	Y53	Z53	

460	4.59	73.17888641357422	1034.914672851562	1013.164611816406	248.1667938232422	1019.209838867188	998.7504272460938	170.1925506591797	1083.7177734375	1006.197082519531	177.5670318603516	1291.482177734375	1248.107421875	183.7063903808594	1213.765014648438	982.0899047851562	186.2876739501953	1483.359985351562	1030.76953125	178.1636199951172	1404.879638671875	1213.612548828125	112.3562469482422	1342.266235351562	970.6260375976562	289.6996765136719	1446.64501953125	1014.20458984375	356.6899719238281	1456.681518554688	1121.525024414062	435.6066589355469	1329.287231445312	1119.944702148438	456.7192993164062	1118.4443359375	1168.159301757812	376.8171081542969	1094.152587890625	1101.18310546875	383.1787414550781	900.404541015625	1294.74560546875	443.7760314941406	875.915771484375	1241.218505859375	460.9165649414062	1013.726379394531	1206.173461914062	353.9452209472656	722.6065673828125	1338.91796875	434.8943481445312	803.0148315429688	1288.458618164062	383.2607727050781	823.82470703125	1332.08203125	7.949133396148682	1445.122314453125	1091.657348632812	-53.84621810913086	1373.307373046875	1080.862670898438	-74.40396118164062	1108.0185546875	1057.39111328125	18.71204566955566	1089.503540039062	1080.712524414062	-52.33169174194336	860.3493041992188	1205.218505859375	-97.52477264404297	844.772705078125	1131.920166015625	-82.33450317382812	1029.808349609375	1071.156494140625	-36.68714904785156	672.97314453125	1212.564697265625	-56.88809204101562	759.7488403320312	1231.134765625	-105.8990859985352	755.9734497070312	1171.240234375	107.1214294433594	1641.831298828125	1053.820068359375	209.5281372070312	1716.868041992188	1236.149780273438	86.77948760986328	1699.205322265625	1214.589599609375	241.7028350830078	1667.566772460938	1067.68017578125	342.9318542480469	958.5348510742188	1101.573974609375	-3.094853639602661	971.1416015625	1088.801635742188	26.27694129943848	990.2230224609375	1211.968872070312	294.8207397460938	975.3535766601562	1214.47314453125	270.0599670410156	503.3118896484375	1204.611572265625	312.6985473632812	639.1268310546875	1164.15673828125	257.197265625	46.07042694091797	1089.826049804688	276.6844482421875	260.5314636230469	1143.38134765625	255.6085815429688	45.69978332519531	1297.282958984375	200.6122741699219	46.72585678100586	1249.773559570312	297.9169311523438	38.29847717285156	1191.679321289062	179.4632568359375	47.26078796386719	1041.407348632812	-4.561405181884766	527.9330444335938	1207.701538085938	-13.04201698303223	802.6473388671875	1194.212280273438	-38.29972076416016	47.0767822265625	1130.508544921875	-19.57206535339355	405.836181640625	1190.608032226562	14.98976516723633	41.73495864868164	1343.756103515625	49.30126953125	48.77251052856445	1278.75732421875	-46.02743148803711	49.22438049316406	1255.585083007812	15.19430923461914	46.5378303527832	1079.783081054688	
461	4.600000000000001	72.82016754150391	1035.008911132812	1015.024841308594	247.8922271728516	1019.242431640625	1000.861328125	169.7611236572266	1083.576171875	1008.270263671875	176.8303527832031	1291.489990234375	1249.89404296875	182.9895324707031	1213.774658203125	983.8922119140625	185.5313262939453	1483.34765625	1032.560668945312	177.4813232421875	1404.856689453125	1215.388061523438	111.5277099609375	1342.2568359375	972.47998046875	288.9167175292969	1446.645751953125	1015.919860839844	356.0380859375	1456.525756835938	1123.216552734375	434.7548828125	1328.9482421875	1121.149047851562	455.1896057128906	1117.699829101562	1168.181518554688	375.2274475097656	1094.135375976562	1101.01953125	380.9031982421875	898.91259765625	1293.060546875	441.5583190917969	874.7019653320312	1239.480346679688	459.0609130859375	1012.718505859375	1205.458251953125	351.1880493164062	720.8104248046875	1335.71240234375	432.4208679199219	801.4486083984375	1286.103515625	380.5908203125	821.906494140625	1329.690551757812	7.225473403930664	1445.171875	1093.538452148438	-54.66243362426758	1373.420288085938	1082.83447265625	-75.57967376708984	1108.153564453125	1059.593994140625	17.6009578704834	1089.397216796875	1082.931762695312	-53.56768417358398	860.4463500976562	1207.29931640625	-99.08795928955078	845.007568359375	1134.189208984375	-83.63605499267578	1029.97705078125	1073.394287109375	-38.32830429077148	673.0158081054688	1214.506225585938	-58.19244384765625	759.792724609375	1233.164794921875	-107.5237731933594	756.1996459960938	1173.544921875	106.4296798706055	1641.8828125	1055.55615234375	209.0009918212891	1716.822631835938	1237.834716796875	86.27408599853516	1699.29052734375	1216.349365234375	241.0753631591797	1667.493530273438	1069.317626953125	342.4118041992188	958.552001953125	1103.878051757812	-3.438650131225586	971.2177734375	1090.4833984375	25.52677917480469	990.2356567382812	1213.676147460938	294.1069946289062	975.3506469726562	1216.7109375	269.6269226074219	503.1262512207031	1205.738403320312	312.2056884765625	639.0924072265625	1165.651245117188	257.1760864257812	46.11779022216797	1089.850463867188	276.4229431152344	260.5369873046875	1143.867065429688	255.5706176757812	45.71989059448242	1297.2861328125	200.5785064697266	46.69493865966797	1249.759887695312	297.8587341308594	38.36069488525391	1191.702880859375	179.4239349365234	47.28927230834961	1041.399169921875	-5.149996280670166	527.7509155273438	1207.665283203125	-14.05388069152832	802.7052612304688	1195.285034179688	-38.33734893798828	47.01567840576172	1130.517944335938	-19.8643913269043	405.7560424804688	1190.418701171875	15.01489067077637	41.73507690429688	1343.88623046875	49.25865173339844	48.75145721435547	1278.841796875	-46.08330917358398	49.09798812866211	1255.560791015625	15.20153999328613	46.45857238769531	1079.826049804688	
462	4.61	72.44086456298828	1035.11328125	1016.862670898438	247.5914459228516	1019.271545410156	1002.94287109375	169.3172149658203	1083.4521484375	1010.288391113281	176.0766448974609	1291.49072265625	1251.658203125	182.2608642578125	1213.795532226562	985.6600341796875	184.7602081298828	1483.338745117188	1034.341064453125	176.7850036621094	1404.828247070312	1217.14501953125	110.6939849853516	1342.254638671875	974.308837890625	288.1265869140625	1446.655517578125	1017.625	355.3665466308594	1456.380126953125	1124.903198242188	433.890625	1328.627563476562	1122.32958984375	453.6318359375	1116.970581054688	1168.122924804688	373.5987854003906	1094.1591796875	1100.787841796875	378.6705017089844	897.375732421875	1291.202880859375	439.4009399414062	873.5045776367188	1237.54931640625	457.1983337402344	1011.717834472656	1204.619262695312	348.5164184570312	718.9577026367188	1332.238037109375	430.0131225585938	799.8697509765625	1283.52490234375	377.9158325195312	819.9376220703125	1327.087646484375	6.496285438537598	1445.21875	1095.398559570312	-55.48973083496094	1373.5439453125	1084.7607421875	-76.82616424560547	1108.315673828125	1061.710083007812	16.43554878234863	1089.27001953125	1085.12890625	-54.99448776245117	860.5979614257812	1209.367065429688	-100.7541961669922	845.255615234375	1136.364501953125	-85.02943420410156	1030.155151367188	1075.548583984375	-40.13591003417969	673.1007690429688	1216.473266601562	-59.69207382202148	759.88427734375	1235.19580078125	-109.2499313354492	756.451904296875	1175.77099609375	105.7236099243164	1641.91552734375	1057.268676757812	208.4297332763672	1716.772338867188	1239.491333007812	85.73069000244141	1699.367797851562	1218.072387695312	240.4265899658203	1667.41552734375	1070.930908203125	341.8677062988281	958.5597534179688	1106.156616210938	-3.854907274246216	971.3138427734375	1092.100708007812	24.7344799041748	990.2833862304688	1215.346557617188	293.3435363769531	975.3289184570312	1218.913696289062	269.1213684082031	502.9474792480469	1206.920532226562	311.6549072265625	639.0554809570312	1167.193969726562	257.1552734375	46.17478561401367	1089.87646484375	276.1409606933594	260.5517883300781	1144.401733398438	255.5336151123047	45.73906707763672	1297.29833984375	200.5449829101562	46.66207504272461	1249.748413085938	297.7937622070312	38.42323684692383	1191.727905273438	179.3763122558594	47.31760406494141	1041.398559570312	-5.671341896057129	527.58935546875	1207.6826171875	-15.21244239807129	802.7802124023438	1196.3310546875	-38.34318923950195	46.98744964599609	1130.530151367188	-20.11782264709473	405.6688842773438	1190.28515625	15.03267765045166	41.74498748779297	1344.024780273438	49.24322128295898	48.71776580810547	1278.9375	-46.12746047973633	49.01231002807617	1255.53857421875	15.25551986694336	46.39126205444336	1079.88134765625	
463	4.62	72.03522491455078	1035.216186523438	1018.673645019531	247.2517547607422	1019.295043945312	1004.990783691406	168.8526611328125	1083.340209960938	1012.250183105469	175.3115997314453	1291.476440429688	1253.401000976562	181.5177764892578	1213.823120117188	987.3946533203125	183.9765777587891	1483.330810546875	1036.112182617188	176.0778656005859	1404.793334960938	1218.8857421875	109.8548965454102	1342.25732421875	976.1148071289062	287.3330078125	1446.668701171875	1019.322509765625	354.6811218261719	1456.241333007812	1126.586669921875	433.0173645019531	1328.325439453125	1123.489868164062	452.0508728027344	1116.258056640625	1167.986206054688	371.9302368164062	1094.22314453125	1100.498413085938	376.4912719726562	895.7986450195312	1289.187866210938	437.3102722167969	872.3262939453125	1235.439331054688	455.3360595703125	1010.7294921875	1203.662963867188	345.9458618164062	717.0582885742188	1328.517456054688	427.6840209960938	798.28515625	1280.737548828125	375.2758178710938	817.9440307617188	1324.306396484375	5.762670516967773	1445.26708984375	1097.237426757812	-56.32330322265625	1373.677612304688	1086.642944335938	-78.13573455810547	1108.505493164062	1063.73486328125	15.23128509521484	1089.154296875	1087.272827148438	-56.58669662475586	860.80322265625	1211.427856445312	-102.4984817504883	845.5159912109375	1138.455932617188	-86.50112152099609	1030.338989257812	1077.614013671875	-42.07162094116211	673.2373657226562	1218.496337890625	-61.36414337158203	760.0421142578125	1237.248046875	-111.0511016845703	756.735595703125	1177.931518554688	105.004264831543	1641.926025390625	1058.959838867188	207.8237915039062	1716.7236328125	1241.114135742188	85.1510009765625	1699.429565429688	1219.75927734375	239.7541351318359	1667.329223632812	1072.521484375	341.2939758300781	958.5580444335938	1108.406372070312	-4.357002258300781	971.4141845703125	1093.649658203125	23.9063720703125	990.341552734375	1216.985229492188	292.5408630371094	975.29638671875	1221.081420898438	268.5451965332031	502.7787780761719	1208.147583007812	311.0504760742188	639.0159912109375	1168.778198242188	257.133056640625	46.24283981323242	1089.901733398438	275.8418273925781	260.5798645019531	1144.975463867188	255.4973297119141	45.75642395019531	1297.32080078125	200.5113525390625	46.62641906738281	1249.739624023438	297.7221069335938	38.48848342895508	1191.753784179688	179.3179321289062	47.34293365478516	1041.406005859375	-6.131614685058594	527.4408569335938	1207.738037109375	-16.47271728515625	802.847412109375	1197.355102539062	-38.32224655151367	46.98484420776367	1130.542602539062	-20.33248710632324	405.5623474121094	1190.20703125	15.04357624053955	41.75203704833984	1344.166748046875	49.25569915771484	48.66330337524414	1279.0419921875	-46.15647506713867	48.95927047729492	1255.51806640625	15.34895038604736	46.3253173828125	1079.942260742188	
